<?xml version="1.0" encoding="UTF-8" standalone="no"?>
<!-- Created with Inkscape (http://www.inkscape.org/) -->

<svg
   width="512"
   height="512"
   viewBox="0 0 512 512"
   version="1.1"
   id="svg1"
   xml:space="preserve"
   inkscape:export-filename="Spot.png"
   inkscape:export-xdpi="96"
   inkscape:export-ydpi="96"
   xmlns:inkscape="http://www.inkscape.org/namespaces/inkscape"
   xmlns:sodipodi="http://sodipodi.sourceforge.net/DTD/sodipodi-0.dtd"
   xmlns="http://www.w3.org/2000/svg"
   xmlns:svg="http://www.w3.org/2000/svg"><sodipodi:namedview
     id="namedview1"
     pagecolor="#ffffff"
     bordercolor="#000000"
     borderopacity="0.25"
     inkscape:showpageshadow="2"
     inkscape:pageopacity="0.0"
     inkscape:pagecheckerboard="0"
     inkscape:deskcolor="#d1d1d1"
     inkscape:document-units="px"><inkscape:page
       x="0"
       y="0"
       width="512"
       height="512"
       id="page2"
       margin="0"
       bleed="0" /></sodipodi:namedview><defs
     id="defs1" /><g
     inkscape:label="Capa 1"
     inkscape:groupmode="layer"
     id="layer1"><path
       style="fill:#000000;stroke-width:2.4494"
       d="m 329.05143,486.51744 c -3.17013,-0.76054 -4.10257,-1.094 -5.94147,-2.12472 -2.8259,-1.58393 -4.34786,-2.99486 -6.2181,-5.76445 -2.78599,-4.12563 -3.20883,-5.64135 -3.20205,-11.47826 0.004,-4.39045 0.10999,-5.33925 0.78445,-7.09934 1.11261,-2.90323 2.80122,-5.38429 5.08198,-7.46684 3.45997,-3.15931 6.55035,-4.32909 11.45578,-4.33629 5.14103,-0.008 8.67347,1.62988 12.39995,5.74779 3.39683,3.75359 5.01866,8.3371 5.03064,14.21713 0.0172,8.30447 -4.38974,14.92043 -11.6337,17.46648 -1.96574,0.69089 -6.38271,1.16834 -7.75748,0.8385 z m -170.55578,-9.74368 c -2.50274,-0.59136 -5.55897,-1.75314 -6.79526,-2.58315 -0.49154,-0.33004 -1.36555,-0.8239 -1.94221,-1.09751 -0.57668,-0.27359 -2.40051,-1.86901 -4.05292,-3.54535 -4.49598,-4.56107 -6.23656,-8.44474 -6.24361,-13.93122 -0.01,-7.26427 3.76345,-14.13307 13.32154,-24.25333 7.13516,-7.55482 11.77143,-13.82633 14.43182,-19.52204 3.22145,-6.89681 4.11731,-15.40556 2.25653,-21.43152 -2.19694,-7.11445 -9.3818,-12.81442 -16.81316,-13.33831 -6.62501,-0.46706 -12.42586,1.99392 -21.59844,9.16309 -8.04157,6.28518 -10.10862,7.24543 -15.72748,7.30624 -2.59028,0.0279 -4.23516,-0.13742 -5.59197,-0.56221 -4.81019,-1.50623 -10.82799,-7.13044 -13.566383,-12.67907 -1.871207,-3.79151 -2.185581,-5.18745 -2.195295,-9.74789 -0.0075,-3.55772 0.123687,-4.62194 0.824137,-6.6786 1.620474,-4.75823 3.809061,-7.31069 11.617281,-13.54889 7.92637,-6.33258 10.08248,-8.6233 12.41277,-13.1878 1.05801,-2.07242 2.07798,-6.04981 2.08546,-8.1323 0.008,-1.97583 -1.11701,-6.38041 -2.14839,-8.41802 -2.51431,-4.96721 -6.85425,-9.16967 -12.20949,-11.82269 -4.77974,-2.36792 -5.45628,-2.60604 -11.223545,-3.95029 -7.0677,-1.64731 -8.789382,-2.46634 -11.761393,-5.59507 -2.854574,-3.00515 -3.892143,-5.48935 -3.892143,-9.31884 0,-5.4613 2.537481,-8.74221 10.320965,-13.34485 10.662646,-6.30523 14.802216,-11.98876 14.428296,-19.80976 -0.12908,-2.70016 -0.30098,-3.3154 -1.76952,-6.33419 -3.314818,-6.81401 -9.129516,-11.11128 -21.621709,-15.97926 -3.13492,-1.22159 -9.884524,-2.96212 -13.590512,-3.50457 -5.357571,-0.78423 -10.79318,-1.41588 -15.37799,-1.78703 -13.478046,-1.09113 -21.612946,-3.19806 -26.642092,-6.90032 -7.824845,-5.76031 -11.453338,-12.65315 -11.453338,-21.75715 0,-5.03088 1.697952,-11.31071 4.220798,-15.61057 1.534525,-2.61536 6.205305,-7.28908 8.813572,-8.81907 5.26537,-3.08867 12.738025,-4.33801 19.074248,-3.18905 4.006238,0.72647 11.857308,3.74448 15.152828,5.82484 0.76373,0.48212 2.119984,1.27955 3.013917,1.77209 0.893902,0.49255 4.613544,3.12905 8.265809,5.85891 10.054097,7.51487 15.641997,10.73923 22.972781,13.25591 5.118268,1.75713 8.301228,2.30493 13.392588,2.30493 3.59096,0 4.77014,-0.14133 6.95021,-0.83374 2.45027,-0.7781 5.98007,-2.75611 7.18988,-4.02899 2.87111,-3.02076 3.41975,-8.75058 1.40842,-14.70925 -1.0017,-2.96761 -4.33506,-9.88433 -5.36982,-11.14243 -0.48656,-0.59155 -3.38048,-6.04822 -4.82202,-9.09226 -1.65703,-3.499 -2.51112,-7.96183 -2.24769,-11.74449 0.1205,-1.73004 0.38659,-3.77198 0.59138,-4.53766 0.84623,-3.16411 3.76581,-7.81875 6.5151,-10.38689 8.84051,-8.25802 21.5849,-9.01837 34.79395,-2.07586 7.98135,4.19491 9.28284,4.84389 11.24259,5.60625 2.62315,1.02041 8.03261,1.38851 10.95456,0.74539 4.28807,-0.94374 8.3012,-4.31614 10.53982,-8.85697 3.9501,-8.01234 3.1497,-17.73601 -2.36449,-28.72521 -3.12623,-6.230269 -3.61421,-9.394939 -1.96035,-12.713799 1.61459,-3.24004 5.71163,-5.251291 9.83111,-4.826123 3.40987,0.351932 6.04907,2.824013 7.93952,7.436733 2.87113,7.00571 3.6219,8.602369 5.32581,11.326439 3.7822,6.04661 7.34556,9.68271 11.99189,12.2367 8.64996,4.7547 17.5033,2.36531 24.36681,-6.57622 2.92184,-3.80647 4.30647,-6.19052 6.84249,-11.781209 1.22186,-2.69363 2.62083,-5.52457 3.10882,-6.29101 2.27897,-3.57935 7.66036,-8.498572 11.18966,-10.228731 14.40437,-7.061367 30.96974,-3.291259 40.42786,9.200961 3.0821,4.07086 4.08618,5.90146 6.50887,11.866759 3.41844,8.41702 5.08696,11.33968 8.05749,14.11381 1.71238,1.59917 3.15725,2.61947 4.25316,3.00333 5.74204,2.01135 11.46904,1.06485 16.20547,-2.67831 5.5002,-4.34673 8.94605,-9.30669 12.70207,-18.283309 3.42681,-8.18977 4.20049,-9.87563 5.75042,-12.53049 3.2199,-5.515352 7.48491,-9.05165 13.15996,-10.911554 2.80228,-0.918403 3.58564,-1.022938 7.66478,-1.022938 4.054,0 4.8602,0.105996 7.48319,0.984539 5.89382,1.973865 10.63495,5.054816 14.18968,9.220949 4.2738,5.008904 5.85565,9.655164 5.8661,17.230213 0.002,2.63029 -0.18149,5.41424 -0.41834,6.291 -2.15444,7.97508 -6.1158,13.07532 -15.7619,20.29342 -9.28322,6.94657 -12.56328,9.70857 -15.88438,13.37554 -6.63651,7.32775 -9.59718,14.03264 -9.19055,20.81352 0.35183,5.86739 3.11064,10.89549 7.77471,14.16988 2.99346,2.10152 5.83907,3.23628 9.33394,3.72217 2.63822,0.36679 3.45173,0.3423 6.11625,-0.1842 4.8857,-0.9653 12.699,-4.32029 16.38289,-7.03474 1.21262,-0.89351 3.00998,-1.93921 5.51183,-3.20675 4.57842,-2.31963 9.99119,-0.84307 11.92957,3.25429 2.40468,5.08312 -0.20379,9.42798 -8.13287,13.54651 -11.42265,5.93318 -17.57973,14.14306 -16.72681,22.30353 0.54957,5.25802 3.76404,8.98599 11.30892,13.11555 8.14254,4.45665 11.31262,6.87881 14.33398,10.95207 2.80717,3.78452 4.29849,8.9889 4.2772,14.92638 -0.0263,7.33479 -1.09926,9.71361 -8.46979,18.77829 -5.0251,6.18016 -7.9493,13.09521 -7.93925,18.77451 0.01,5.37871 1.52911,9.47789 5.49049,14.811 3.18971,4.29418 7.71904,8.1347 14.07633,11.93567 3.91175,2.33878 4.96019,2.85172 10.13548,4.95874 8.01603,3.26361 13.42064,4.21832 29.00846,5.12422 10.06312,0.58484 17.58004,3.50438 23.15908,8.99485 4.56269,4.49024 6.53647,9.52762 6.53632,16.6817 -9e-5,4.84016 -0.62624,8.03714 -2.23941,11.43403 -4.74513,9.99189 -13.24136,15.47743 -23.97208,15.47743 -6.45971,0 -12.18564,-1.87734 -18.68715,-6.1269 -3.38895,-2.21511 -10.0309,-7.34734 -13.97999,-10.80228 -1.34554,-1.17724 -2.99693,-2.58434 -3.66972,-3.12695 -0.67279,-0.54259 -2.08826,-1.74582 -3.14551,-2.67381 -6.27529,-5.50824 -14.72023,-10.34358 -21.14472,-12.10688 -3.08342,-0.84631 -4.09176,-0.95758 -8.56274,-0.94503 -6.04487,0.0172 -9.2508,0.72364 -14.1646,3.1223 -3.7397,1.82555 -6.53092,4.19917 -8.29084,7.05045 -3.36366,5.44961 -3.39794,11.77314 -0.10003,18.44434 1.34587,2.72244 2.12843,3.73159 5.81828,7.50277 5.29815,5.41501 6.06618,6.83534 6.05368,11.19547 -0.01,3.67483 -0.93906,6.04411 -3.12161,7.96528 -2.38343,2.09795 -4.26283,2.86922 -6.99183,2.86922 -3.69286,0 -6.44841,-1.49102 -10.65814,-5.76698 -10.05521,-10.21348 -17.59521,-13.13204 -26.24814,-10.16005 -7.78186,2.67283 -11.70039,8.85213 -14.62995,23.07049 -1.27738,6.19983 -2.19918,9.35264 -3.86888,13.23307 -1.85654,4.31464 -3.30703,6.58776 -5.93046,9.29386 -4.36333,4.50081 -7.00569,6.1369 -12.9315,8.00703 -8.38016,2.64468 -15.30253,2.34466 -25.62894,-1.11079 -8.55965,-2.86422 -14.46327,-6.58128 -27.84447,-17.53158 -9.02015,-7.38147 -14.63684,-10.24324 -21.66595,-11.03907 -11.92762,-1.35043 -23.93521,4.4612 -31.86073,15.42047 -1.91544,2.64864 -5.18925,8.04255 -5.18925,8.54975 0,0.15138 -0.4097,1.2384 -0.91043,2.4158 -1.76334,4.14619 -2.7646,7.4032 -3.98881,12.97517 -1.60041,7.28436 -2.47639,10.87449 -2.94202,12.05774 -0.26475,0.67278 -1.07176,2.84998 -1.79339,4.8382 -2.7334,7.53126 -7.07813,12.31803 -13.73242,15.12954 -2.45473,1.03718 -3.02385,1.13677 -7.03939,1.23195 -2.89425,0.0685 -5.0765,-0.0638 -6.46575,-0.39195 z M 260.92273,346.26184 c 2.94256,-2.42407 6.8933,-5.66033 8.77942,-7.1917 1.88616,-1.53134 4.29436,-3.53032 5.35158,-4.44217 1.05725,-0.91185 4.9105,-4.21063 8.56276,-7.33059 25.85453,-22.08642 38.75342,-35.95567 46.75768,-50.27512 4.64387,-8.30777 6.15858,-12.54232 7.4386,-20.79522 1.31625,-8.48644 -0.13373,-19.45613 -3.56885,-26.9986 -5.36826,-11.78741 -15.01356,-20.77912 -26.33721,-24.55255 -3.81543,-1.27143 -4.70091,-1.40359 -10.99537,-1.64099 -7.73834,-0.29187 -12.21223,0.50409 -18.23544,3.24434 -7.75947,3.53017 -13.99714,8.61914 -20.61235,16.81642 -1.42768,1.76913 -2.75725,3.31635 -2.95457,3.43833 -0.34103,0.21064 -2.67354,-2.16191 -3.84347,-3.90959 -1.10031,-1.64367 -6.1645,-6.88585 -8.71522,-9.02154 -5.41548,-4.53436 -12.09303,-8.21341 -17.47496,-9.62804 -4.06432,-1.06828 -12.46564,-1.35221 -16.95616,-0.57303 -8.30644,1.44129 -16.38459,5.4782 -22.23523,11.11168 -2.48174,2.38962 -6.94256,7.8329 -6.94256,8.4716 0,0.15455 -0.30732,0.71271 -0.68297,1.24023 -1.30205,1.82858 -3.44275,6.50276 -4.33207,9.45901 -3.94664,13.1192 -3.16367,24.64853 2.56338,37.74595 2.5334,5.79366 8.0327,14.27943 13.58988,20.96998 5.5368,6.66602 18.12753,19.2596 27.13198,27.13809 1.34558,1.17729 4.64835,4.06601 7.3395,6.41937 4.45734,3.89784 12.19617,10.3987 21.8437,18.34942 2.01839,1.66337 4.0432,3.3414 4.49965,3.72894 2.2622,1.9208 3.98411,3.06217 4.31303,2.85889 0.20084,-0.12417 2.77274,-2.20904 5.71527,-4.63311 z m 51.14406,-86.05482 c -2.084,-0.30741 -3.45424,-1.03536 -4.77019,-2.53416 -1.27623,-1.45351 -1.67041,-2.62819 -2.15164,-6.4117 -1.06534,-8.37591 -6.21693,-13.61904 -14.36373,-14.61888 -5.26673,-0.6464 -8.38799,-3.7639 -8.38799,-8.3779 0,-3.14088 1.53732,-5.54919 4.36876,-6.8439 2.46408,-1.12673 8.28659,-1.13102 11.97669,-0.01 6.71477,2.04209 12.61422,6.00193 16.35437,10.97745 2.06368,2.74529 3.28204,5.16441 4.80037,9.53146 1.33683,3.84497 1.74896,6.16381 1.71399,9.64374 -0.06,5.96064 -3.9337,9.46983 -9.54063,8.6427 z M 47.642079,310.95915 c -1.466661,-0.37813 -3.834935,-2.28158 -4.548147,-3.6555 -0.31355,-0.60399 -0.641668,-2.20122 -0.729134,-3.54936 -0.260736,-4.01818 1.192465,-6.34112 5.301945,-8.4753 1.534832,-0.79707 2.225962,-0.92908 4.930561,-0.94176 2.587052,-0.0121 3.399542,0.12123 4.57658,0.75103 4.11548,2.20224 5.396629,6.5833 3.11759,10.66096 -1.010865,1.80863 -2.272964,2.88333 -5.019719,4.27437 -2.022961,1.02445 -5.588819,1.46172 -7.629676,0.93556 z M 440.26831,169.6939 c -3.87015,-0.91133 -6.51975,-4.15837 -6.81846,-8.35598 -0.40547,-5.6983 6.05418,-13.17958 15.14706,-17.54265 2.91592,-1.39913 3.33292,-1.5012 6.61546,-1.61891 2.97034,-0.10653 3.81814,-0.008 5.57201,0.65288 3.83703,1.44414 6.60528,4.81177 7.13414,8.67878 0.4076,2.98044 -0.0273,5.27275 -1.49988,7.90597 -1.53285,2.74103 -3.12385,4.13351 -6.88659,6.02726 -7.31733,3.68274 -14.73234,5.31967 -19.26374,4.25265 z M 173.27679,69.629642 c -2.56778,-1.09255 -3.03307,-1.431526 -6.15346,-4.48298 -4.75022,-4.645281 -8.82913,-11.911986 -10.05899,-17.92036 -1.77783,-8.685394 0.0564,-15.264964 5.27581,-18.925884 7.76056,-5.443199 18.0313,-3.061772 22.68441,5.259714 1.63529,2.924531 3.80479,8.486062 4.78565,12.268177 0.69104,2.664528 0.81759,4.027275 0.82759,8.912231 0.01,5.337282 -0.0532,5.933325 -0.86194,8.003279 -1.0431,2.670019 -3.35102,5.180947 -6.03203,6.562631 -1.53632,0.791761 -2.36713,0.962369 -5.15194,1.057968 -2.89023,0.09917 -3.57863,0.0053 -5.3151,-0.734776 z"
       id="path1" /></g></svg>
